<svg width="108" height="76" viewBox="0 0 108 76" fill="none" xmlns="http://www.w3.org/2000/svg">
<path d="M0 74.2101V65.1677H17.0455V10.0818H22.4501L1.66297 22.7619V12.3684L20.0596 0.935422H27.8548V65.1677H43.8609V74.2101H0Z" fill="#4AA460"/>
<path d="M81.0293 75.1455C72.5758 75.1455 66.0625 71.9235 61.4893 65.4795C56.9855 58.9662 54.7335 49.6466 54.7335 37.5208C54.7335 25.1871 56.9855 15.8675 61.4893 9.56209C66.0625 3.18736 72.5758 0 81.0293 0C89.552 0 96.0653 3.18736 100.569 9.56209C105.073 15.8675 107.325 25.1524 107.325 37.4169C107.325 49.612 105.038 58.9662 100.465 65.4795C95.9614 71.9235 89.4827 75.1455 81.0293 75.1455ZM81.0293 66.1031C86.3646 66.1031 90.3142 63.7819 92.8779 59.1394C95.511 54.497 96.8275 47.2561 96.8275 37.4169C96.8275 27.5083 95.511 20.3021 92.8779 15.7982C90.3142 11.2251 86.3646 8.93847 81.0293 8.93847C75.7632 8.93847 71.8136 11.2251 69.1806 15.7982C66.5475 20.3021 65.231 27.4737 65.231 37.3129C65.231 47.2215 66.5475 54.497 69.1806 59.1394C71.8829 63.7819 75.8325 66.1031 81.0293 66.1031Z" fill="#4AA460"/>
</svg>
