<svg width="142" height="89" viewBox="0 0 142 89" fill="none" xmlns="http://www.w3.org/2000/svg">
<path d="M4.293 75.6641L41.4275 5.1516V9.4446H0V0H51.516V8.26403L16.5281 75.6641H4.293Z" fill="#4AA460"/>
<path d="M69.7193 88.8651L64.997 85.2161C67.072 82.998 68.4672 80.9588 69.1827 79.0985C69.9698 77.2382 70.3633 75.3064 70.3633 73.303L72.7244 75.6641H64.2458V62.8925H77.0174V71.5858C77.0174 74.8055 76.4808 77.7749 75.4076 80.4938C74.3343 83.2842 72.4382 86.0747 69.7193 88.8651Z" fill="#4AA460"/>
<path d="M94.1148 75.6641L131.249 5.1516V9.4446H89.8218V0H141.338V8.26403L106.35 75.6641H94.1148Z" fill="#4AA460"/>
</svg>
